<svg width="649" height="9" viewBox="0 0 649 9" fill="none" xmlns="http://www.w3.org/2000/svg">
<path d="M9.66602 8.94043C9.66603 6.21199 11.878 4.00014 14.6064 4C17.335 4 19.5469 6.2119 19.5469 8.94043C19.5469 8.96031 19.5461 8.98017 19.5459 9H24.0723C24.072 8.98017 24.0703 8.96031 24.0703 8.94043C24.0703 6.21199 26.2823 4.00014 29.0107 4C31.7393 4 33.9512 6.2119 33.9512 8.94043C33.9512 8.96031 33.9504 8.98017 33.9502 9H38.4766C38.4763 8.98017 38.4746 8.96031 38.4746 8.94043C38.4746 6.21199 40.6866 4.00014 43.415 4C46.1436 4 48.3555 6.2119 48.3555 8.94043C48.3555 8.96031 48.3547 8.98017 48.3545 9H52.8809C52.8806 8.98017 52.8789 8.96031 52.8789 8.94043C52.8789 6.21199 55.0909 4.00014 57.8193 4C60.5479 4 62.7598 6.2119 62.7598 8.94043C62.7598 8.96031 62.759 8.98017 62.7588 9H67.2852C67.2849 8.98017 67.2832 8.96031 67.2832 8.94043C67.2832 6.21199 69.4952 4.00014 72.2236 4C74.9522 4 77.1641 6.2119 77.1641 8.94043C77.1641 8.96031 77.1633 8.98017 77.1631 9H81.6895C81.6892 8.98017 81.6875 8.96031 81.6875 8.94043C81.6875 6.21199 83.8995 4.00014 86.6279 4C89.3565 4 91.5683 6.2119 91.5684 8.94043C91.5684 8.96031 91.5676 8.98017 91.5674 9H96.0938C96.0935 8.98017 96.0918 8.96031 96.0918 8.94043C96.0918 6.21199 98.3038 4.00014 101.032 4C103.761 4 105.973 6.2119 105.973 8.94043C105.973 8.96031 105.972 8.98017 105.972 9H110.498C110.498 8.98017 110.496 8.96031 110.496 8.94043C110.496 6.21199 112.708 4.00014 115.437 4C118.165 4 120.377 6.2119 120.377 8.94043C120.377 8.96031 120.376 8.98017 120.376 9H124.902C124.902 8.98017 124.9 8.96031 124.9 8.94043C124.9 6.21199 127.112 4.00014 129.841 4C132.569 4 134.781 6.2119 134.781 8.94043C134.781 8.96031 134.781 8.98017 134.78 9H139.307C139.306 8.98017 139.305 8.96031 139.305 8.94043C139.305 6.21199 141.517 4.00014 144.245 4C146.974 4 149.186 6.2119 149.186 8.94043C149.186 8.96031 149.185 8.98017 149.185 9H153.711C153.711 8.98017 153.709 8.96031 153.709 8.94043C153.709 6.21199 155.921 4.00014 158.649 4C161.378 4 163.59 6.2119 163.59 8.94043C163.59 8.96031 163.589 8.98017 163.589 9H168.115C168.115 8.98017 168.113 8.96031 168.113 8.94043C168.113 6.21199 170.325 4.00014 173.054 4C175.782 4 177.994 6.2119 177.994 8.94043C177.994 8.96031 177.993 8.98017 177.993 9H182.52C182.519 8.98017 182.518 8.96031 182.518 8.94043C182.518 6.21199 184.73 4.00014 187.458 4C190.187 4 192.398 6.2119 192.398 8.94043C192.398 8.96031 192.398 8.98017 192.397 9H196.924C196.924 8.98017 196.922 8.96031 196.922 8.94043C196.922 6.21199 199.134 4.00014 201.862 4C204.591 4 206.803 6.2119 206.803 8.94043C206.803 8.96031 206.802 8.98017 206.802 9H211.328C211.328 8.98017 211.326 8.96031 211.326 8.94043C211.326 6.21199 213.538 4.00014 216.267 4C218.995 4 221.207 6.2119 221.207 8.94043C221.207 8.96031 221.206 8.98017 221.206 9H225.732C225.732 8.98017 225.73 8.96031 225.73 8.94043C225.73 6.21199 227.942 4.00014 230.671 4C233.399 4 235.611 6.2119 235.611 8.94043C235.611 8.96031 235.611 8.98017 235.61 9H240.137C240.136 8.98017 240.135 8.96031 240.135 8.94043C240.135 6.21199 242.347 4.00014 245.075 4C247.804 4 250.016 6.2119 250.016 8.94043C250.016 8.96031 250.015 8.98017 250.015 9H254.541C254.541 8.98017 254.539 8.96031 254.539 8.94043C254.539 6.21199 256.751 4.00014 259.479 4C262.208 4 264.42 6.2119 264.42 8.94043C264.42 8.96031 264.419 8.98017 264.419 9H268.945C268.945 8.98017 268.943 8.96031 268.943 8.94043C268.943 6.21199 271.155 4.00014 273.884 4C276.612 4 278.824 6.2119 278.824 8.94043C278.824 8.96031 278.823 8.98017 278.823 9H283.35C283.349 8.98017 283.348 8.96031 283.348 8.94043C283.348 6.21199 285.56 4.00014 288.288 4C291.017 4 293.229 6.2119 293.229 8.94043C293.229 8.96031 293.228 8.98017 293.228 9H297.754C297.754 8.98017 297.752 8.96031 297.752 8.94043C297.752 6.21199 299.964 4.00014 302.692 4C305.421 4 307.633 6.2119 307.633 8.94043C307.633 8.96031 307.632 8.98017 307.632 9H312.158C312.158 8.98017 312.156 8.96031 312.156 8.94043C312.156 6.21199 314.368 4.00014 317.097 4C319.825 4 322.037 6.2119 322.037 8.94043C322.037 8.96031 322.036 8.98017 322.036 9H326.562C326.562 8.98017 326.561 8.96031 326.561 8.94043C326.561 6.21199 328.773 4.00014 331.501 4C334.23 4 336.441 6.2119 336.441 8.94043C336.441 8.96031 336.441 8.98017 336.44 9H340.967C340.967 8.98017 340.965 8.96031 340.965 8.94043C340.965 6.21199 343.177 4.00014 345.905 4C348.634 4 350.846 6.2119 350.846 8.94043C350.846 8.96031 350.845 8.98017 350.845 9H355.371C355.371 8.98017 355.369 8.96031 355.369 8.94043C355.369 6.21199 357.581 4.00014 360.31 4C363.038 4 365.25 6.2119 365.25 8.94043C365.25 8.96031 365.249 8.98017 365.249 9H369.775C369.775 8.98017 369.773 8.96031 369.773 8.94043C369.773 6.21199 371.985 4.00014 374.714 4C377.442 4 379.654 6.2119 379.654 8.94043C379.654 8.96031 379.654 8.98017 379.653 9H384.18C384.179 8.98017 384.178 8.96031 384.178 8.94043C384.178 6.21199 386.39 4.00014 389.118 4C391.847 4 394.059 6.2119 394.059 8.94043C394.059 8.96031 394.058 8.98017 394.058 9H398.584C398.584 8.98017 398.582 8.96031 398.582 8.94043C398.582 6.21199 400.794 4.00014 403.522 4C406.251 4 408.463 6.2119 408.463 8.94043C408.463 8.96031 408.462 8.98017 408.462 9H412.988C412.988 8.98017 412.986 8.96031 412.986 8.94043C412.986 6.21199 415.198 4.00014 417.927 4C420.655 4 422.867 6.2119 422.867 8.94043C422.867 8.96031 422.866 8.98017 422.866 9H427.393C427.392 8.98017 427.391 8.96031 427.391 8.94043C427.391 6.21199 429.603 4.00014 432.331 4C435.06 4 437.271 6.2119 437.271 8.94043C437.271 8.96031 437.271 8.98017 437.271 9H441.797C441.797 8.98017 441.795 8.96031 441.795 8.94043C441.795 6.21199 444.007 4.00014 446.735 4C449.464 4 451.676 6.2119 451.676 8.94043C451.676 8.96031 451.675 8.98017 451.675 9H456.201C456.201 8.98017 456.199 8.96031 456.199 8.94043C456.199 6.21199 458.411 4.00014 461.14 4C463.868 4 466.08 6.2119 466.08 8.94043C466.08 8.96031 466.079 8.98017 466.079 9H470.605C470.605 8.98017 470.604 8.96031 470.604 8.94043C470.604 6.21199 472.816 4.00014 475.544 4C478.272 4 480.484 6.2119 480.484 8.94043C480.484 8.96031 480.484 8.98017 480.483 9H485.01C485.01 8.98017 485.008 8.96031 485.008 8.94043C485.008 6.21199 487.22 4.00014 489.948 4C492.677 4 494.889 6.2119 494.889 8.94043C494.889 8.96031 494.888 8.98017 494.888 9H499.414C499.414 8.98017 499.412 8.96031 499.412 8.94043C499.412 6.21199 501.624 4.00014 504.353 4C507.081 4 509.293 6.2119 509.293 8.94043C509.293 8.96031 509.292 8.98017 509.292 9H513.818C513.818 8.98017 513.816 8.96031 513.816 8.94043C513.816 6.21199 516.028 4.00014 518.757 4C521.485 4 523.697 6.2119 523.697 8.94043C523.697 8.96031 523.697 8.98017 523.696 9H528.223C528.222 8.98017 528.221 8.96031 528.221 8.94043C528.221 6.21199 530.433 4.00014 533.161 4C535.89 4 538.102 6.2119 538.102 8.94043C538.102 8.96031 538.101 8.98017 538.101 9H542.627C542.627 8.98017 542.625 8.96031 542.625 8.94043C542.625 6.21199 544.837 4.00014 547.565 4C550.294 4 552.506 6.2119 552.506 8.94043C552.506 8.96031 552.505 8.98017 552.505 9H557.031C557.031 8.98017 557.029 8.96031 557.029 8.94043C557.029 6.21199 559.241 4.00014 561.97 4C564.698 4 566.91 6.2119 566.91 8.94043C566.91 8.96031 566.909 8.98017 566.909 9H571.436C571.435 8.98017 571.434 8.96031 571.434 8.94043C571.434 6.21199 573.646 4.00014 576.374 4C579.103 4 581.314 6.2119 581.314 8.94043C581.314 8.96031 581.314 8.98017 581.313 9H585.84C585.84 8.98017 585.838 8.96031 585.838 8.94043C585.838 6.21199 588.05 4.00014 590.778 4C593.507 4 595.719 6.2119 595.719 8.94043C595.719 8.96031 595.718 8.98017 595.718 9H600.244C600.244 8.98017 600.242 8.96031 600.242 8.94043C600.242 6.21199 602.454 4.00014 605.183 4C607.911 4 610.123 6.2119 610.123 8.94043C610.123 8.96031 610.122 8.98017 610.122 9H614.648C614.648 8.98017 614.646 8.96031 614.646 8.94043C614.646 6.21199 616.858 4.00014 619.587 4C622.315 4 624.527 6.2119 624.527 8.94043C624.527 8.96031 624.527 8.98017 624.526 9H629.053C629.053 8.98017 629.051 8.96031 629.051 8.94043C629.051 6.21199 631.263 4.00014 633.991 4C636.72 4 638.932 6.2119 638.932 8.94043C638.932 8.96031 638.931 8.98017 638.931 9H643.456C643.456 8.98017 643.455 8.96031 643.455 8.94043C643.455 6.2119 645.667 4 648.396 4C648.463 4 648.531 4.00316 648.598 4.00586V0H0V4.00586C0.0670712 4.00316 0.134415 4 0.202148 4C2.93069 4 5.14257 6.2119 5.14258 8.94043C5.14258 8.96031 5.14184 8.98017 5.1416 9H9.66797C9.66773 8.98017 9.66602 8.96031 9.66602 8.94043Z" fill="white"/>
</svg>
